# xmcd CD database file
#
# Track frame offsets:
#	150
#	19944
#	36836
#	53812
#	75703
#	95730
#	120616
#	135945
#	157891
#	177989
#	196777
#
# Disc length: 2846 seconds
#
# Revision: 1
# Processed by: cddbd v1.5.2PL0 Copyright (c) Steve Scherf et al.
# Submitted via: CDex 1.51
#
DISCID=850b1c0b
DTITLE=Robert Earl Keen - What I Really Mean
DYEAR=2005
DGENRE=Country
TTITLE0=For Love
TTITLE1=Mr. Wolf and Mamabear
TTITLE2=What I Really Mean
TTITLE3=The Great Hank
TTITLE4=The Wild Ones
TTITLE5=Long Chain
TTITLE6=Broken End Of Love
TTITLE7=The Dark Side of the World
TTITLE8=The Traveling Storm
TTITLE9=A Border Tragedy
TTITLE10=Ride
EXTD=YEAR: 2005
EXTT0=
EXTT1=
EXTT2=
EXTT3=
EXTT4=
EXTT5=
EXTT6=
EXTT7=
EXTT8=
EXTT9=
EXTT10=
PLAYORDER=
